<svg width="20" height="20" viewBox="0 0 20 20" fill="none" xmlns="http://www.w3.org/2000/svg">
<g clip-path="url(#clip0_9666_35743)">
<path d="M19.173 9.71009C19.173 8.93122 19.1111 8.36285 18.9772 7.77344H10.2715V11.2889H15.3816C15.2786 12.1625 14.7222 13.4782 13.4859 14.3623L13.4686 14.48L16.2212 16.6585L16.4119 16.6779C18.1633 15.0254 19.173 12.594 19.173 9.71009Z" fill="#4285F4"/>
<path d="M10.2717 18.9724C12.7752 18.9724 14.8769 18.1303 16.412 16.6778L13.4861 14.3622C12.7031 14.9201 11.6522 15.3095 10.2717 15.3095C7.81963 15.3095 5.73851 13.6571 4.99664 11.373L4.8879 11.3825L2.02571 13.6454L1.98828 13.7517C3.51306 16.8462 6.64508 18.9724 10.2717 18.9724Z" fill="#34A853"/>
<path d="M4.9974 11.3731C4.80165 10.7837 4.68836 10.1521 4.68836 9.49955C4.68836 8.84693 4.80165 8.21543 4.9871 7.62602L4.98191 7.50049L2.08385 5.20117L1.98903 5.24725C1.3606 6.53136 1 7.97337 1 9.49955C1 11.0257 1.3606 12.4677 1.98903 13.7518L4.9974 11.3731Z" fill="#FBBC05"/>
<path d="M10.2717 3.69016C12.0128 3.69016 13.1873 4.45851 13.857 5.1006L16.4738 2.49029C14.8667 0.964108 12.7752 0.0273438 10.2717 0.0273438C6.64508 0.0273438 3.51306 2.15346 1.98828 5.2479L4.98635 7.62667C5.73851 5.34267 7.81963 3.69016 10.2717 3.69016Z" fill="#EB4335"/>
</g>
<defs>
<clipPath id="clip0_9666_35743">
<rect x="1" width="18.1739" height="19" rx="9.08696" fill="white"/>
</clipPath>
</defs>
</svg>
